<svg xmlns="http://www.w3.org/2000/svg" xmlns:xlink="http://www.w3.org/1999/xlink" width="500" zoomAndPan="magnify" viewBox="0 0 375 374.999991" height="500" preserveAspectRatio="xMidYMid meet" version="1.0"><defs><g/></defs><g fill="#333333" fill-opacity="1"><g transform="translate(0.0146529, 329.882916)"><g><path d="M 267.972656 0.0351562 L 267.578125 -164.871094 L 282.304688 -164.90625 L 294.953125 -157.375 L 209.789062 -14.332031 L 164.480469 -14.332031 L 79.6875 -153.71875 L 92.269531 -161.371094 L 106.992188 -161.371094 L 106.992188 14.722656 L 17.863281 14.722656 L 17.863281 -289.566406 L 93.519531 -289.566406 L 200.683594 -111.644531 L 188.070312 -104.046875 L 175.40625 -111.558594 L 280.984375 -289.566406 L 356.273438 -289.566406 L 357.140625 14.722656 L 268.007812 14.722656 Z M 297.417969 -0.0351562 L 282.695312 0 L 282.695312 -14.722656 L 342.375 -14.722656 L 342.375 0 L 327.652344 0.0429688 L 326.867188 -274.800781 L 341.589844 -274.84375 L 341.589844 -260.117188 L 289.371094 -260.117188 L 289.371094 -274.84375 L 302.035156 -267.332031 L 188.167969 -75.347656 L 72.589844 -267.246094 L 85.203125 -274.84375 L 85.203125 -260.117188 L 32.589844 -260.117188 L 32.589844 -274.84375 L 47.3125 -274.84375 L 47.3125 0 L 32.589844 0 L 32.589844 -14.722656 L 92.269531 -14.722656 L 92.269531 0 L 77.542969 0 L 77.542969 -213.90625 L 185.335938 -36.707031 L 172.757812 -29.054688 L 172.757812 -43.777344 L 201.421875 -43.777344 L 201.421875 -29.054688 L 188.769531 -36.585938 L 296.898438 -218.203125 Z M 297.417969 -0.0351562 "/></g></g></g><g fill="#f5f5f5" fill-opacity="1"><g transform="translate(0.0146529, 329.882916)"><g><path d="M 282.6875 0 L 282.296875 -164.90625 L 201.421875 -29.046875 L 172.75 -29.046875 L 92.265625 -161.375 L 92.265625 0 L 32.59375 0 L 32.59375 -274.84375 L 85.203125 -274.84375 L 188.0625 -104.046875 L 289.359375 -274.84375 L 341.578125 -274.84375 L 342.375 0 Z M 282.6875 0 "/></g></g></g><path stroke-linecap="butt" transform="matrix(0.344428, 0.666235, -0.666235, 0.344428, 30.512821, 48.852107)" fill="none" stroke-linejoin="miter" d="M -0.00265711 1.999621 L 210.274429 1.998933 " stroke="#333333" stroke-width="4" stroke-opacity="1" stroke-miterlimit="4"/><path stroke-linecap="butt" transform="matrix(0.350232, -0.663202, 0.663202, 0.350232, 269.1173, 188.929236)" fill="none" stroke-linejoin="miter" d="M 0.00193721 2.001401 L 211.23441 2.001424 " stroke="#333333" stroke-width="4" stroke-opacity="1" stroke-miterlimit="4"/></svg>